<svg width="21" height="23" viewBox="0 0 21 23" fill="none" xmlns="http://www.w3.org/2000/svg">
<path d="M20.8034 1.81417C20.9206 1.63847 20.9879 1.43424 20.9982 1.22327C21.0084 1.0123 20.9612 0.802509 20.8616 0.616274C20.7619 0.430039 20.6136 0.274349 20.4324 0.165813C20.2512 0.0572775 20.0439 -3.15977e-05 19.8327 1.30699e-08H1.16606C0.955032 0.000109027 0.747982 0.0574558 0.566965 0.165933C0.385948 0.274409 0.237743 0.429954 0.138136 0.615999C0.0385287 0.802044 -0.00875084 1.01162 0.00133288 1.22241C0.0114166 1.4332 0.0784858 1.63731 0.195397 1.813L9.33273 15.5202V19.8333H5.83273V22.1667H15.1661V19.8333H11.6661V15.5202L20.8034 1.81417ZM10.4994 13.0632L6.4569 7H14.5419L10.4994 13.0632ZM17.6534 2.33333L16.0982 4.66667H4.90056L3.3454 2.33333H17.6534Z" fill="#252121"/>
</svg>
