<svg width="40" height="40" viewBox="0 0 40 40" fill="none" xmlns="http://www.w3.org/2000/svg">
<path d="M33.3346 16.6663C33.3346 24.988 24.103 33.6547 21.003 36.3313C20.7142 36.5485 20.3626 36.6659 20.0013 36.6659C19.64 36.6659 19.2884 36.5485 18.9996 36.3313C15.8996 33.6547 6.66797 24.988 6.66797 16.6663C6.66797 13.1301 8.07273 9.73874 10.5732 7.23825C13.0737 4.73777 16.4651 3.33301 20.0013 3.33301C23.5375 3.33301 26.9289 4.73777 29.4294 7.23825C31.9299 9.73874 33.3346 13.1301 33.3346 16.6663Z" stroke="#1F3A34" stroke-width="3" stroke-linecap="round" stroke-linejoin="round"/>
<path d="M20 21.667C22.7614 21.667 25 19.4284 25 16.667C25 13.9056 22.7614 11.667 20 11.667C17.2386 11.667 15 13.9056 15 16.667C15 19.4284 17.2386 21.667 20 21.667Z" stroke="#1F3A34" stroke-width="3" stroke-linecap="round" stroke-linejoin="round"/>
</svg>
