<svg width="28" height="28" viewBox="0 0 28 28" fill="none" xmlns="http://www.w3.org/2000/svg">
<path d="M4.66667 24.5C4.33612 24.5 4.05923 24.388 3.836 24.164C3.61278 23.94 3.50078 23.6631 3.5 23.3333C3.49923 23.0036 3.61123 22.7267 3.836 22.5027C4.06078 22.2787 4.33767 22.1667 4.66667 22.1667H5.83334V4.66667C5.83334 4.33611 5.94534 4.05922 6.16934 3.836C6.39334 3.61278 6.67023 3.50078 7 3.5H15.1667C15.4972 3.5 15.7745 3.612 15.9985 3.836C16.2225 4.06 16.3341 4.33689 16.3333 4.66667H21C21.3306 4.66667 21.6078 4.77867 21.8318 5.00267C22.0558 5.22667 22.1675 5.50356 22.1667 5.83333V22.1667H23.3333C23.6639 22.1667 23.9412 22.2787 24.1652 22.5027C24.3892 22.7267 24.5008 23.0036 24.5 23.3333C24.4992 23.6631 24.3872 23.9404 24.164 24.1652C23.9408 24.3899 23.6639 24.5016 23.3333 24.5H21C20.6695 24.5 20.3926 24.388 20.1693 24.164C19.9461 23.94 19.8341 23.6631 19.8333 23.3333V7H16.3333V23.3333C16.3333 23.6639 16.2213 23.9412 15.9973 24.1652C15.7733 24.3892 15.4964 24.5008 15.1667 24.5H4.66667ZM14 14C14 13.6694 13.888 13.3926 13.664 13.1693C13.44 12.9461 13.1631 12.8341 12.8333 12.8333C12.5036 12.8326 12.2267 12.9446 12.0027 13.1693C11.7787 13.3941 11.6667 13.671 11.6667 14C11.6667 14.329 11.7787 14.6063 12.0027 14.8318C12.2267 15.0574 12.5036 15.169 12.8333 15.1667C13.1631 15.1643 13.4404 15.0523 13.6652 14.8307C13.8899 14.609 14.0016 14.3321 14 14Z" fill="black"/>
</svg>
