<svg width="28" height="28" viewBox="0 0 28 28" fill="none" xmlns="http://www.w3.org/2000/svg">
<g clip-path="url(#clip0_1258_4233)">
<path d="M26.0728 15.6971C27.7489 12.5042 24.3421 10.29 19.8879 9.20413C20.223 8.44244 20.3202 7.44538 19.3752 6.49338C18.1633 5.27494 18.9687 3.5 18.9687 3.5C18.9687 3.5 16.4251 5.84631 18.0312 7.46419C18.6235 8.0605 18.932 8.58419 19.0794 9.02212C17.8498 8.76883 16.6047 8.59725 15.3523 8.5085C15.7264 7.49175 15.7627 6.21469 14.5841 4.99187C12.9706 3.31581 14.0451 0.875 14.0451 0.875C14.0451 0.875 10.6532 4.10113 12.7947 6.32538C13.5765 7.1365 13.9882 7.8505 14.1877 8.449C12.8603 8.40919 11.5828 8.46737 10.448 8.62619C10.5832 7.97212 10.4703 7.22006 9.74885 6.49381C8.53697 5.27538 9.34285 3.5 9.34285 3.5C9.34285 3.5 6.79879 5.84631 8.40529 7.46419C8.90841 7.97081 9.20329 8.42319 9.3726 8.81737C9.18068 8.85937 8.99518 8.90502 8.8161 8.95431C3.28522 8.43675 0.872849 9.5795 1.97491 11.8213C0.0516621 13.7445 0.774412 15.9394 3.1811 17.619C4.43672 22.7907 4.76004 27.125 14.217 27.125C22.6555 27.125 23.8215 23.6731 24.8667 19.2553C28.0027 18.6309 27.3346 17.1277 26.0728 15.6971ZM25.291 15.1804C24.2406 17.4204 19.6818 19.1065 14.217 19.1065C8.75266 19.1065 4.19391 17.4204 3.14304 15.1804C3.12072 15.1139 3.09929 15.0448 3.07785 14.9774C3.57835 13.7078 5.20497 12.6061 7.4896 11.8685C6.95279 12.3874 6.84122 13.1622 8.25391 13.4339C8.65816 13.5117 9.7681 13.2423 9.28291 11.865C9.2151 11.6725 9.10441 11.5434 8.96835 11.4656C10.5381 11.1064 12.32 10.8994 14.217 10.8994C14.4297 10.8994 14.6383 10.9069 14.8479 10.9117C13.7533 11.3002 12.8603 12.4972 15.0955 12.8502C15.589 12.9281 16.944 12.6586 16.3516 11.2814C16.2998 11.1587 16.2168 11.0516 16.111 10.9708C18.2053 11.1248 20.1027 11.5281 21.6366 12.1096C20.2878 12.0343 18.7915 12.8656 21.1877 14.0359C21.7018 14.287 23.2637 14.5176 23.0488 12.9968C23.0331 12.887 22.9943 12.7817 22.9351 12.6879C24.1614 13.3341 25.0167 14.1177 25.3558 14.9774L25.291 15.1804Z" fill="#252121"/>
<path d="M11.3046 16.1179C12.7191 16.1179 13.6623 14.8391 14.4013 14.3386C15.4338 13.6386 18.0299 13.3656 15.7435 13.3104C13.5748 13.2584 10.8973 15.0189 9.10796 14.8977C6.14521 14.6964 9.17971 16.1179 11.3046 16.1179ZM14.361 18.7306C14.8606 18.8269 16.234 18.4935 15.6333 16.7903C14.9547 14.8631 10.847 18.0543 14.361 18.7306ZM6.58402 14.5153C6.10671 13.8416 5.41458 12.9871 5.12802 13.4321C4.73646 14.0406 4.61308 15.2652 4.89746 15.3194C7.12696 15.7469 6.97077 15.0609 6.58402 14.5153ZM19.545 14.7883C19.947 14.2904 19.1442 13.0921 18.6288 13.3017C17.8221 13.6298 17.357 13.4076 17.0026 13.9054C16.1727 15.0714 18.9985 15.4643 19.545 14.7883ZM19.2938 16.215C18.7155 15.9599 18.852 16.8144 17.9975 16.1288C17.3859 15.6379 16.0699 16.8761 16.9379 17.7169C17.9039 18.6528 18.1611 17.7633 18.5671 17.8381C19.3923 17.9899 20.8111 16.8844 19.2938 16.215ZM9.67671 16.5073C9.37527 16.2106 8.97102 16.5685 8.74264 17.0051C8.51646 16.894 8.33227 16.8682 8.33227 16.8682C8.15946 16.3756 7.64539 16.0378 7.64539 16.0378C7.64539 16.0378 7.69221 16.5501 7.76002 16.7999C7.19214 16.5983 7.17464 15.5833 7.17464 15.5833C7.17464 15.5833 6.79358 15.8112 6.82814 16.1984C6.20296 15.6939 5.67052 15.9298 5.67052 15.9298C5.67052 15.9298 6.46371 16.376 6.57308 16.677C6.12771 16.7116 5.86783 16.8656 5.71646 17.2239C5.71689 17.2269 6.59671 16.8052 7.24771 17.1097C6.99089 17.3197 7.11864 17.8443 7.11864 17.8443C7.72458 17.202 8.20846 17.2707 8.59564 17.3858C8.54883 17.5822 8.55189 17.7616 8.63502 17.8705C9.30658 18.7534 11.6459 18.5548 12.2741 17.902C13.035 17.1123 10.921 17.7318 9.67671 16.5073Z" fill="#252121"/>
<path d="M11.3278 13.1819C11.1287 13.5817 11.1274 13.8836 11.3575 14.1977C11.3606 14.1986 11.4503 13.2274 12.0457 12.8249C12.0943 13.153 12.6097 13.3122 12.6097 13.3122C12.1975 11.8527 13.4007 11.7766 13.395 11.2529C12.7571 11.3067 12.3948 11.7705 12.3948 11.7705C11.8834 11.6659 11.3291 11.9332 11.3291 11.9332C11.3291 11.9332 11.7933 12.1559 12.0422 12.2264C11.5776 12.6101 10.6973 12.1039 10.6973 12.1039C10.6973 12.1039 10.6973 12.5484 11.0473 12.7168C10.2935 12.9946 10.2227 13.5721 10.2227 13.5721C10.2227 13.5721 11.0128 13.1211 11.3278 13.1819ZM22.5063 15.1751C22.6875 14.8312 22.4232 14.4738 22.4232 14.4738C22.4232 14.4738 22.0168 15.4044 21.4152 15.3724C21.5736 15.1677 21.8142 14.7127 21.8142 14.7127C21.8142 14.7127 21.2096 14.8277 20.8605 15.2158C20.8605 15.2158 20.2935 15.0587 19.7492 15.3947C20.0563 15.8191 21.0687 15.1642 21.6055 16.5826C21.6055 16.5826 21.9249 16.1481 21.7687 15.8554C22.4871 15.8244 23.1372 16.5515 23.1394 16.5489C23.1368 16.1595 22.9565 15.918 22.558 15.715C22.775 15.4792 23.6788 15.372 23.6788 15.372C23.6788 15.372 23.2781 14.9498 22.5063 15.1751Z" fill="#252121"/>
</g>
<defs>
<clipPath id="clip0_1258_4233">
<rect width="28" height="28" fill="white"/>
</clipPath>
</defs>
</svg>
