<svg width="22" height="22" viewBox="0 0 22 22" fill="none" xmlns="http://www.w3.org/2000/svg">
<path d="M0.801701 9.75333C0.896759 9.66061 1.00967 9.58703 1.13318 9.53829C1.22576 9.50178 1.32321 9.47933 1.42205 9.47158L1.5215 9.46915L9.53027 9.49581L9.53193 8.99587L9.55552 1.49671C9.55596 1.36548 9.58216 1.23549 9.63275 1.11441C9.68337 0.99324 9.75752 0.883151 9.85065 0.790578C9.9438 0.698006 10.0544 0.624717 10.1759 0.574832C10.2973 0.524977 10.4275 0.499773 10.5587 0.500147C10.6899 0.500553 10.8199 0.526836 10.941 0.577379C11.0622 0.627996 11.1723 0.702175 11.2649 0.795286C11.3574 0.888387 11.4314 0.998458 11.4813 1.11987C11.5311 1.24121 11.5563 1.37151 11.556 1.50268L11.5303 9.0039L11.5287 9.50385L12.0293 9.50482L19.5298 9.52841C19.795 9.52935 20.049 9.6355 20.236 9.82355C20.423 10.0118 20.528 10.267 20.5271 10.5323C20.5262 10.7977 20.4195 11.0521 20.2312 11.2391C20.0431 11.4259 19.7883 11.5304 19.5232 11.5296L12.024 11.5046L11.5234 11.5022L11.5224 12.0029L11.4968 19.5013L11.4967 19.5096C11.4987 19.6423 11.4745 19.7744 11.425 19.8975C11.3754 20.0207 11.3011 20.1331 11.2078 20.2275C11.1145 20.3218 11.0035 20.3965 10.8811 20.4474C10.7585 20.4984 10.6269 20.5252 10.4941 20.5248C10.3614 20.5245 10.2293 20.4972 10.107 20.4455C9.98496 20.3939 9.87446 20.3182 9.78181 20.2235C9.68911 20.1286 9.61633 20.016 9.56747 19.8927C9.51863 19.7693 9.49429 19.637 9.49695 19.5044L9.49697 19.4961L9.52264 11.9948L9.5243 11.4949L9.02436 11.4932L1.52175 11.4689L1.51346 11.4689C1.38089 11.4707 1.24927 11.4461 1.12631 11.3965C1.00317 11.3468 0.890614 11.2727 0.796264 11.1793C0.70213 11.086 0.627206 10.975 0.576379 10.8526C0.525558 10.7301 0.499886 10.5983 0.500327 10.4656C0.500832 10.3329 0.527835 10.2008 0.579647 10.0785C0.631407 9.95649 0.706841 9.84591 0.801701 9.75333Z" fill="#FAEC18" stroke="#FAEC18"/>
</svg>
