<svg width="40" height="40" viewBox="0 0 40 40" fill="none" xmlns="http://www.w3.org/2000/svg">
<path d="M23.052 27.613C23.3962 27.7711 23.784 27.8072 24.1515 27.7154C24.519 27.6236 24.8443 27.4094 25.0737 27.108L25.6654 26.333C25.9759 25.919 26.3785 25.583 26.8413 25.3516C27.3042 25.1202 27.8145 24.9997 28.332 24.9997H33.332C34.2161 24.9997 35.0639 25.3509 35.6891 25.976C36.3142 26.6011 36.6654 27.449 36.6654 28.333V33.333C36.6654 34.2171 36.3142 35.0649 35.6891 35.69C35.0639 36.3152 34.2161 36.6663 33.332 36.6663C25.3755 36.6663 17.7449 33.5056 12.1188 27.8795C6.49274 22.2535 3.33203 14.6228 3.33203 6.66634C3.33203 5.78229 3.68322 4.93444 4.30834 4.30932C4.93346 3.6842 5.78131 3.33301 6.66536 3.33301H11.6654C12.5494 3.33301 13.3973 3.6842 14.0224 4.30932C14.6475 4.93444 14.9987 5.78229 14.9987 6.66634V11.6663C14.9987 12.1838 14.8782 12.6942 14.6468 13.1571C14.4154 13.6199 14.0794 14.0225 13.6654 14.333L12.8854 14.918C12.5794 15.1516 12.3637 15.484 12.275 15.8586C12.1863 16.2332 12.23 16.627 12.3987 16.973C14.6765 21.5995 18.4227 25.341 23.052 27.613Z" stroke="#1F3A34" stroke-width="3" stroke-linecap="round" stroke-linejoin="round"/>
</svg>
