<svg width="402" height="77" viewBox="0 0 402 77" fill="none" xmlns="http://www.w3.org/2000/svg">
<g clip-path="url(#clip0_1388_4463)">
<path d="M6223.86 -5730.34C6257.84 -5730.34 6289.55 -5744.42 6317.44 -5756.83C6351.63 -5772.01 6383.93 -5786.34 6434.01 -5786.34C6465.22 -5786.34 6496.23 -5780.62 6529.95 -5768.5V-6518.5H6127.95V-5754.2C6174.06 -5734.57 6205.37 -5730.34 6223.86 -5730.34Z" fill="#FDC700"/>
<path d="M6529.95 -4882.5C6483.92 -4902.14 6452.51 -4906.36 6434.01 -4906.36C6400.03 -4906.36 6368.32 -4892.28 6340.43 -4879.87C6306.24 -4864.69 6273.94 -4850.36 6223.86 -4850.36C6192.64 -4850.36 6161.63 -4856.09 6127.95 -4868.21V-4144H6529.95V-4882.5Z" fill="#FDC700"/>
<path d="M402 29C355.968 9.36474 324.558 5.1416 306.065 5.1416C272.083 5.14168 240.371 19.2157 212.483 31.6318C178.291 46.8087 145.989 61.1416 95.9092 61.1416C64.6945 61.1416 33.6851 55.4127 0 43.293V77H402V29Z" fill="#FDC700"/>
</g>
<defs>
<clipPath id="clip0_1388_4463">
<rect width="402" height="77" fill="white" transform="matrix(1 0 0 -1 0 77)"/>
</clipPath>
</defs>
</svg>
