<svg width="402" height="77" viewBox="0 0 402 77" fill="none" xmlns="http://www.w3.org/2000/svg">
<g clip-path="url(#clip0_1388_4465)">
<path d="M-5823.81 5806.9C-5857.81 5806.9 -5889.53 5820.98 -5917.43 5833.39C-5951.63 5848.57 -5983.94 5862.9 -6034.04 5862.9C-6065.26 5862.9 -6096.27 5857.17 -6130 5845.06V6595H-5727.87V5830.75C-5774 5811.13 -5805.32 5806.9 -5823.81 5806.9Z" fill="#FDC700"/>
<path d="M-6130 4959.12C-6083.95 4978.76 -6052.53 4982.98 -6034.04 4982.98C-6000.04 4982.98 -5968.32 4968.91 -5940.42 4956.49C-5906.22 4941.32 -5873.91 4926.98 -5823.81 4926.98C-5792.59 4926.98 -5761.57 4932.71 -5727.87 4944.83V4220.68H-6130V4959.12Z" fill="#FDC700"/>
<path d="M-0.126323 47.9964C45.9199 67.6301 77.3399 71.853 95.8384 71.853C129.831 71.8529 161.553 57.78 189.45 45.3647C223.653 30.189 255.965 15.8572 306.061 15.8572C337.285 15.8572 368.304 21.5857 402 33.7045V0H-0.126323V47.9964Z" fill="#FDC700"/>
</g>
<defs>
<clipPath id="clip0_1388_4465">
<rect width="402" height="77" fill="white" transform="matrix(-1 0 0 1 402 0)"/>
</clipPath>
</defs>
</svg>
