<svg width="128" height="47" viewBox="0 0 128 47" fill="none" xmlns="http://www.w3.org/2000/svg">
<path d="M127.512 29.9364C126.231 25.7686 122.08 21.9827 118.779 19.2996C117.67 18.3934 116.507 17.591 115.472 16.6002C115.149 16.289 113.997 15.3037 114.03 14.8997C114.062 14.4521 115.026 14.7605 115.332 14.7687C118.052 14.826 121.021 14.5995 123.765 14.493C124.374 14.4685 124.989 14.5285 125.597 14.4821C125.977 13.696 125.606 13.0901 125.527 12.3804C125.393 11.133 125.357 10.0631 125.172 8.79117C124.991 7.56563 125.147 7.44827 124.423 6.31007C123.437 4.75429 122.673 4.4322 121.258 3.46871C121.053 3.32949 120.889 3.03745 120.666 2.89552C120.035 2.48883 116.539 1.50348 115.786 1.48984C115.406 1.48711 115.046 1.66998 114.704 1.6809C112.7 1.74095 110.957 2.02208 109.253 3.22032C108.953 3.4305 108.328 4.08829 108.074 4.10194C107.844 4.11286 107.918 3.59972 107.934 3.42504C107.962 3.17938 108.295 2.01117 108.257 1.94293C108.199 1.85832 107.992 1.79008 107.885 1.7737C106.118 1.50348 104.261 1.81192 102.503 1.77097C101.484 1.74914 99.9221 1.40522 99.0019 1.4953C96.9019 1.70001 94.9902 1.65906 92.8931 1.53351C92.1993 1.4953 91.4949 1.33153 90.9351 1.31242C90.162 1.28786 89.1271 1.49803 88.3353 1.50075C86.5739 1.5144 84.8671 1.33153 83.1329 1.32334C81.3824 1.31515 79.6403 1.39431 77.928 1.41068C77.5101 1.41341 76.975 1.35882 76.5761 1.40249C76.2568 1.44616 76.0763 1.6536 75.7705 1.67817C75.2162 1.7273 74.4488 1.52259 73.7962 1.58264C73.4875 1.6072 72.521 1.75733 72.5046 2.07121C72.4963 2.21587 72.8868 3.52056 72.9687 3.75803C73.493 5.29745 74.266 6.79866 74.9023 8.28076C74.9704 8.44453 75.6013 9.22787 75.2326 9.29885C75.088 9.32341 74.6509 8.97404 74.4707 8.89488C72.062 7.82766 69.0007 6.452 66.3547 6.33191C66.1035 6.32099 63.7604 6.49568 63.5966 6.54208C63.3233 6.62396 62.0153 7.00881 61.8869 7.07433C61.7285 7.15895 61.7122 7.35821 61.5866 7.39913C61.4227 7.45646 61.1851 7.38548 60.9913 7.43462C60.112 7.65025 58.2795 9.17603 57.5231 9.7956C56.3025 10.7973 55.3111 11.9655 54.3908 13.2129C53.8801 13.9062 53.7628 14.725 53.3258 15.462C53.2056 15.664 52.9708 15.6258 52.8642 15.4265C52.8671 14.8451 52.6596 14.1164 52.6622 13.5541C52.665 13.1883 52.8533 12.6588 52.8507 12.2985C52.8507 12.0365 52.6869 11.7663 52.6731 11.4906C52.5776 9.68643 52.807 7.97778 52.6731 6.11082C52.6021 5.11458 52.9243 4.5059 52.9461 3.77986C52.9599 3.22032 52.7305 2.39055 52.6814 1.79827C52.6705 1.65633 52.7768 1.50348 52.7495 1.3752C52.6458 0.908459 51.6218 1.08042 51.2858 1.04493C50.9145 1.00126 50.4857 0.875706 50.1199 0.85933C49.1586 0.826577 47.9788 1.01491 46.9985 1.06404C46.537 1.18414 46.3812 2.00298 46.1711 2.39055C44.2594 5.91703 42.539 9.3589 40.7857 12.9645C40.1767 14.2146 39.7482 15.5548 38.9834 16.7285C38.5193 16.8349 37.8884 15.1454 37.6916 14.8042C36.2389 12.2248 34.7671 9.61819 33.3661 7.02246C32.5933 5.58404 31.9078 4.11559 31.1759 2.66624C30.9111 2.13945 30.4824 1.71911 30.2475 1.17322C30.1191 1.08588 28.6172 1.12409 28.314 1.12682C27.686 1.13774 27.1371 1.14047 26.5307 1.12409C26.1539 1.11044 25.7335 1.01764 25.332 1.19232C25.2119 1.24145 25.2036 1.39158 25.1271 1.43798C24.8458 1.60448 24.5646 1.48165 24.4991 1.98114C24.3899 2.86276 24.3707 4.03642 24.3434 4.94262C24.3353 5.19645 24.6164 6.45473 24.0103 6.33464C23.9775 6.32645 23.7864 5.85972 23.699 5.75053C23.0136 4.89895 21.5934 3.38682 20.6786 2.85185C20.4437 2.71265 20.1515 2.69354 19.903 2.55159C18.666 1.85286 18.1416 1.18141 16.6342 0.802011C15.8532 0.60822 15.3507 0.496311 14.5697 0.264305C12.5161 -0.352555 10.3915 0.196069 8.47718 1.02856C6.74311 1.77916 4.10784 3.92179 3.09743 5.51852C1.93136 7.36091 1.89587 10.7182 2.39288 12.7898C3.01278 15.3883 4.59393 17.056 6.16689 19.0621C8.30242 21.7807 12.6281 23.4703 15.49 25.4355C15.6839 25.5692 15.8259 25.8258 16.0444 25.9594C16.6233 26.3143 17.2596 26.1232 17.0657 27.1359C16.0088 27.185 15.0421 27.3652 13.9662 27.3215C13.0377 27.2778 11.6586 26.8902 10.8285 26.9502C10.6728 26.9612 10.6974 27.1031 10.6264 27.1304C10.0556 27.3706 9.38657 26.8956 8.75029 26.8766C8.39254 26.8657 8.08667 26.9913 7.6907 26.9585C7.2292 26.9229 6.74857 26.6829 6.25429 26.6829C5.66168 26.6829 5.0418 27.0241 4.63489 27.0513C4.41098 27.0649 4.06142 26.8166 3.74466 26.781C3.24764 26.7238 1.75659 26.8083 1.23773 26.8766C0.877261 26.9258 0.524983 27.1878 0.120818 27.1496C0.00339167 27.2451 -0.0375709 29.6879 0.0388925 29.9445C0.085317 30.0974 0.268282 30.122 0.298323 30.4086C0.344746 30.8807 0.153588 31.2792 0.104433 31.664C0.0416233 32.1718 0.959185 35.6301 1.22954 36.1977C1.86036 37.527 2.78339 38.8371 3.56987 40.0462C3.65453 40.1773 4.35635 40.8761 4.47651 40.9388C4.69771 41.0534 5.00082 40.9224 5.11552 41.0589C5.23568 41.2037 5.15923 41.4411 5.49784 41.7031C7.0872 42.9258 8.99879 43.2207 10.924 43.5537C11.2545 43.5563 11.2408 43.1252 11.6395 43.1853L11.5931 43.5454C12.3222 43.5209 13.0623 43.581 13.7914 43.5454C14.0426 43.5319 14.2939 43.379 14.5178 43.3764C14.7827 43.3654 15.0176 43.5399 15.2934 43.5264C16.1372 43.4827 18.7397 42.4782 19.548 42.0388C20.9817 41.2637 22.4673 40.3738 23.4723 39.0583C23.6416 38.8371 24.0048 37.991 24.2833 37.9882C24.6437 38.7879 24.379 39.5905 24.4144 40.3712C24.4307 40.704 24.5673 41.0235 24.5946 41.3537C24.6219 41.654 24.6739 43.1934 24.794 43.2672C25.6843 43.5399 26.5253 43.4227 27.4291 43.458C27.6449 43.4663 27.9645 43.5974 28.1421 43.5537C28.2703 43.5209 28.0628 43.2563 28.3223 43.2807C28.527 43.2971 28.658 43.5046 28.7838 43.5264C28.904 43.5482 29.0704 43.4417 29.2207 43.4526C32.2519 43.7284 35.2422 43.7721 38.2842 43.6437C40.9687 43.5345 43.6696 43.1252 46.343 43.3844C47.2196 43.4663 47.6647 43.8675 48.6806 43.7256C48.8309 43.7037 48.9318 43.5592 49.1339 43.5454C49.5873 43.5126 51.3678 44.2088 51.589 43.4882C51.6681 43.2261 51.5097 43.0215 51.518 42.7977C51.529 42.5382 51.7474 42.2845 51.7828 41.987C51.9713 40.4339 51.8267 38.3376 51.8758 36.7C51.8894 36.1431 51.854 35.5836 51.8267 35.035L53.577 36.7847C54.4946 38.223 56.1468 39.6232 57.5585 40.606C59.0879 41.673 60.1502 42.5574 62.0754 42.9914C65.7429 43.8129 68.0014 43.783 71.4258 42.2545C73.1762 41.4738 73.7743 40.7259 75.1535 39.5223C75.4346 39.2738 75.8225 39.1319 76.0956 38.8534C76.3933 38.5451 76.5379 38.1057 76.8111 37.7755C77.2888 37.1913 78.3568 36.3534 78.6488 35.7557C79.2523 34.5 80.0716 33.4738 80.6835 32.2292C81.3169 30.9462 81.7621 29.5706 82.2372 28.2195C82.5349 28.2278 82.5349 28.6261 82.6524 28.7927C83.8922 30.5422 84.3317 32.4284 85.2522 34.2652C86.5274 36.8146 88.0675 39.4049 88.8785 42.1152C88.9607 42.391 89.0233 43.4663 89.3182 43.4663C89.4384 43.4663 89.6432 43.3109 89.8562 43.2807C90.6755 43.177 91.9754 43.3382 92.8192 43.2916C93.1169 43.2781 94.5669 43.1388 94.7062 43.0187C94.7499 42.9804 95.1623 42.129 95.2141 42.0006C95.4408 41.4111 95.5227 40.6931 95.7575 40.1201C96.555 38.1384 97.3497 36.1077 98.0733 34.0988C98.3136 33.4301 98.3711 32.6959 98.655 31.989C98.7424 31.7623 99.2941 30.4712 99.4169 31.2247C99.4853 31.6477 99.4169 32.3738 99.4169 32.8405C99.4169 33.1217 99.9031 34.0525 100.001 34.4072C100.236 35.2534 100.225 36.225 100.561 37.0712C100.695 37.4123 101.069 37.7563 101.225 38.1138C101.569 38.8945 101.689 39.5879 102.161 40.404C104.1 43.7502 107.683 45.3661 111.37 45.9965C113.53 46.3649 115.469 46.4741 117.61 45.9146C118.309 45.729 119.704 45.3796 120.316 45.1232C122.372 44.258 125.6 40.7724 126.526 38.7715C126.93 37.8928 127.452 36.5525 127.586 35.6109C127.73 34.6338 127.799 33.5911 127.856 32.5703C127.87 32.3301 127.998 32.0626 128.001 31.8361C128.003 31.5658 127.624 30.2913 127.517 29.9445L127.512 29.9364ZM24.1931 24.3628C23.9229 24.7531 23.6689 23.956 23.5186 23.7732C22.2952 22.2884 19.3951 19.0485 17.8604 18.0468C17.1695 17.5964 16.7926 17.5364 16.0416 16.9468C14.5724 15.7868 12.7264 14.7878 11.0906 13.8707C10.9131 13.767 10.64 13.5868 10.6018 13.3739C11.8361 13.3057 13.0869 13.3112 14.3294 13.3248C16.6561 13.3521 18.9855 13.3876 21.3258 13.4231C21.8037 13.4313 22.3035 13.2812 22.8495 13.3248C23.232 13.3521 23.6088 13.4476 23.9557 13.6114L23.8709 15.7022C24.2778 18.2351 24.0649 20.678 24.2396 23.241C24.2505 23.3746 24.2287 24.3109 24.1931 24.36V24.3628ZM101.309 28.2442C100.397 28.0203 100.463 27.7528 100.599 26.9393C100.733 26.1643 101.004 25.4082 101.181 24.6494C101.552 23.0663 102.033 21.5405 102.508 19.9683C102.789 19.0512 103.243 17.0014 103.781 16.3108C103.838 16.2399 103.778 16.1471 103.983 16.2017C104.089 16.5702 104.292 16.9304 104.505 17.2498C106.889 20.8445 110.592 23.0362 113.989 25.52C114.439 25.8502 114.51 26.339 114.794 26.601C114.972 26.7674 115.294 26.8275 115.496 26.9721C116.007 27.3379 117.386 28.4597 115.96 28.4898C115.706 28.4925 115.485 28.3861 115.248 28.3861C113.795 28.3942 112.326 28.1212 110.938 28.2114C108.074 28.4025 105.447 28.2359 102.593 28.2031C102.109 28.2005 101.869 28.3723 101.309 28.2387V28.2442Z" fill="#FAEC18"/>
<path d="M38.4987 22.4764C39.1077 22.4901 39.1022 21.8542 39.2879 21.5184C39.9052 20.3993 40.5688 19.3403 41.1749 18.2021C42.4831 15.7429 43.7338 13.2536 45.1237 10.8517C45.8091 9.66433 46.3499 8.41697 46.948 7.20507C47.3768 6.33711 47.6306 5.6138 47.9912 4.7513C48.2042 4.2436 48.6411 3.92426 48.7258 3.37836C49.1161 3.57216 50.1211 3.20914 50.3861 3.64586C50.6292 4.04708 50.2823 5.52099 50.2522 6.02596C49.8536 12.2819 49.9191 18.6852 50.0148 25.0175C50.2223 29.5376 49.8562 34.0304 49.8863 38.5749C49.8946 39.5658 50.1076 40.712 49.9846 41.7138C49.9136 42.2951 49.0561 41.9293 48.5891 41.9267C48.3816 41.9267 47.849 42.085 47.7481 42.014C47.7125 41.9894 47.6717 41.6945 47.5978 41.5827C47.4368 41.3425 47.1527 41.2362 47.1118 40.8948C47.0708 40.5537 47.2593 40.1661 47.2892 39.825C47.363 38.9897 47.486 38.1572 47.3849 37.4011C47.2619 36.4732 47.4012 35.9054 47.4668 35.0701C47.486 34.8109 47.2728 34.437 47.2947 34.1804C47.5624 30.8833 47.4832 27.5123 47.4668 24.1304C47.4532 21.311 47.5078 18.5324 47.4668 15.7019C47.4532 14.8394 47.3713 13.9141 47.3768 13.0188C47.3768 12.7186 47.5406 11.7196 47.3822 11.5367C47.2237 11.3539 47.0572 12.0581 46.9753 12.1591C46.8224 12.3501 46.4974 12.4675 46.3198 12.7595C46.0631 13.1826 45.8856 13.8486 45.6344 14.3181C44.1023 17.2058 41.9505 20.3147 40.6369 23.2215C40.1371 24.327 39.4982 26.5298 38.7746 27.4333C38.6844 27.5451 38.5478 27.5341 38.436 27.6106C38.3786 27.6514 38.2803 27.9982 38.0564 27.8508C38.0208 27.8261 37.8242 27.1902 37.7423 27.0428C35.7869 23.4973 34.6784 19.515 32.6548 15.9885C32.3789 15.5054 32.3379 15.4481 32.024 15.0059C31.303 13.9905 30.7896 11.6023 29.9976 10.3958C29.812 10.112 29.4788 9.66706 29.4352 10.2348C29.3913 10.8025 29.6208 11.7906 29.6234 12.3883C29.6263 13.5484 29.4105 14.7139 29.4406 15.8875C29.5444 20.0964 30.0002 24.2588 29.7137 28.4376C29.6344 29.5758 29.8637 30.7086 29.8965 31.8413C29.943 33.4816 29.8829 34.9611 29.9867 36.5933C30.085 38.1408 29.9074 39.7894 29.9839 41.348C29.9292 41.7192 29.599 41.4572 29.3122 41.4735C28.6541 41.5118 28.004 41.6373 27.3323 41.3971C27.2203 41.2388 27.4579 40.8322 27.466 40.6219C27.4715 40.4664 27.3786 40.3244 27.3841 40.1825C27.5508 34.5954 27.4361 29.1419 27.3896 23.5028C27.3841 22.7795 27.4826 22.239 27.4826 21.6221C27.4826 21.0053 27.2039 20.2001 27.1984 19.5614C27.193 18.9691 27.3924 18.1066 27.376 17.5088C27.3677 17.1813 27.1685 16.7528 27.1274 16.4116C26.8955 14.5201 27.122 12.5521 27.1357 10.6824C27.1493 8.60803 27.2013 6.51179 27.3077 4.41555C27.316 4.23814 27.4496 4.02253 27.4387 3.86693C27.4278 3.71136 27.1849 3.4848 27.335 3.28011C27.4387 3.14089 28.4874 3.08086 28.6759 3.13271C28.8998 3.19549 29.3257 4.41555 29.4924 4.724C30.1068 5.86219 30.7377 7.00582 31.3495 8.15766C32.6275 10.5596 34.1921 12.9124 35.4156 15.3908C35.563 15.6883 35.8771 16.2014 35.94 16.4907C36.1366 17.3969 36.6226 18.5296 37.0568 19.4003C37.5592 20.4075 38.3622 21.3628 38.5096 22.4764H38.4987Z" fill="#262221"/>
<path d="M20.3111 11.335C20.18 11.1821 20.2209 10.6062 20.1609 10.366C19.7403 8.70921 19.3471 8.69556 18.4077 7.54647C18.2411 7.34176 18.1947 7.04696 18.0062 6.87228C17.796 6.67848 16.477 6.03707 16.1602 5.93607C15.1225 5.60854 13.2027 5.19365 12.1759 5.2619C11.8482 5.28374 10.7067 5.69587 10.3271 5.83509C8.20524 6.61299 7.02006 7.95041 7.11565 10.3305C7.12384 10.5079 7.28495 10.6362 7.28768 10.86C7.30133 11.8153 7.13476 11.7471 7.56622 12.7325C8.21343 14.2146 10.4254 16.1989 11.728 17.1815C14.3742 19.1767 17.4928 20.4296 19.9779 22.6541C21.7557 24.2453 23.1921 26.3225 23.8338 28.6616C24.1396 29.7806 24.1315 33.5392 23.7165 34.549C22.7552 36.8855 21.682 38.7171 19.4754 40.0844C18.7327 40.5458 16.3432 41.4137 15.4911 41.482C13.5987 41.6347 10.024 41.5884 8.2981 40.8732C7.53619 40.5568 6.89171 40.0326 6.23631 39.6177C5.36244 39.0663 5.59457 39.0582 5.04294 38.3921C2.96749 35.8892 2.5524 35.589 1.84512 32.2645C1.61573 31.1864 1.66215 31.222 1.64031 30.1438C1.62938 29.5186 1.05864 28.6861 2.03628 28.5743C2.57698 28.5116 3.82498 28.5197 4.37387 28.5743C4.84631 28.6206 4.56504 28.7844 4.58415 29.0711C4.76711 31.503 4.84358 33.4436 6.34828 35.4772C7.31772 36.7872 9.55975 38.4933 11.1955 38.7033C12.8313 38.9134 15.8325 39.1947 17.3263 38.2148C18.4678 37.4669 19.0931 36.6016 19.8414 35.5289C19.997 35.3051 20.2947 35.1387 20.4531 34.8875C20.8217 34.3088 20.6579 33.9732 20.7589 33.3999C20.8026 33.1435 20.9829 32.9415 21.0102 32.6631C21.0484 32.2754 20.9719 30.2829 20.9119 29.8872C20.8327 29.3605 19.997 27.5016 19.7075 26.9665C18.9429 25.5473 16.365 23.2518 14.9887 22.3593C11.1027 19.8318 7.19756 19.1494 4.95828 14.5421C4.17453 12.929 3.74853 10.0658 4.18545 8.32162C4.30561 7.84124 4.61692 7.43728 4.73161 7.06607C4.89 6.55294 4.61965 6.55839 5.17129 5.98793C6.94634 4.15919 8.45648 3.1329 11.0453 2.6225C12.3889 2.35775 12.8067 2.70712 13.8881 2.75896C16.72 2.88999 17.004 2.99097 19.328 4.57408C19.4973 4.68871 19.7157 4.69144 19.8796 4.83063C20.8081 5.614 22.3319 8.04596 22.6624 9.22234C22.7552 9.54717 22.9435 10.961 22.8426 11.1903C22.8179 11.2422 22.7196 11.3459 22.6705 11.3759C22.4411 11.5151 20.4613 11.5233 20.3083 11.3486L20.3111 11.335Z" fill="#252121"/>
<path d="M120.793 5.31645C122.437 6.59384 123.286 8.55359 123.546 10.5925C123.611 11.1029 123.33 11.8644 123.447 12.4294C122.524 12.6833 121.607 12.888 120.681 12.5141L120.471 10.0794C120.137 9.59351 119.979 8.48262 119.69 8.0814C119.52 7.84666 118.922 7.69655 118.788 7.54914C118.625 7.36899 118.726 7.0169 118.313 6.8504C118.089 6.76034 117.961 6.87497 117.74 6.80945C117.379 6.70301 117.177 6.25264 116.841 6.17623C116.541 6.10798 116.194 6.18988 115.88 6.14893C115.219 6.06431 114.832 5.92511 114.081 5.97698C111.194 6.17896 109.698 7.48092 109.031 10.2541C108.963 10.5406 108.731 11.6051 108.747 11.8344C108.755 11.9518 109.17 13.5376 109.211 13.6195C109.288 13.7805 110.41 15.2899 110.58 15.481C110.803 15.7375 111.112 15.844 111.347 16.0596C113.633 18.1832 116.295 19.87 118.433 22.1573C119.015 22.7797 119.433 22.9817 119.96 23.5001C120.375 23.907 120.695 24.5429 121.077 24.9823C121.601 25.5855 122.42 26.0849 122.866 26.6909C123.609 27.6981 124.993 29.8872 125.209 31.0745C125.323 31.7076 125.476 32.7449 125.433 33.3671C125.408 33.7139 125.392 33.7929 125.389 34.1341C125.378 34.9122 124.652 36.3231 124.267 37.0438C123.578 38.332 122.764 39.3803 121.711 40.4065C120.594 41.4927 118.999 42.2435 117.532 42.7757C116.066 43.3079 115.124 43.4197 113.54 43.3651C112.573 43.3326 110.664 43.207 109.779 42.9094C109.506 42.8165 109.258 42.5108 109.127 42.478C108.947 42.4317 108.72 42.5872 108.665 42.549C108.641 42.53 108.605 42.3472 108.474 42.2435C107.308 41.3481 106.292 41.0616 105.391 39.6749C105.085 39.2056 105.306 39.1427 105.233 38.8533C105.197 38.7142 104.689 38.3211 104.539 38.0154C104.375 37.6826 104.359 37.3085 104.217 36.9947C103.507 35.447 102.925 34.2869 102.933 32.4691C102.933 32.2372 103.089 31.9561 103.081 31.7487C103.062 31.2628 102.384 30.5832 103.679 30.6268C104.116 30.6432 104.763 30.684 105.192 30.7306C105.287 30.7415 105.934 30.8725 105.962 30.9024C106.024 30.9762 105.872 31.3392 105.874 31.4838C105.891 32.2999 106.027 33.7438 106.259 34.5082C106.86 36.4734 107.548 38.2093 109.342 39.4047C109.613 39.5849 111.18 40.4639 111.402 40.4938C112.303 40.6165 113.267 40.5593 114.173 40.5783C114.498 40.5838 114.788 40.7421 115.156 40.6711C115.391 40.6275 115.561 40.3656 115.711 40.341C117.161 40.1226 118.346 39.5358 119.512 38.5696C120.462 37.7808 120.949 37.1694 121.473 36.0447C121.765 35.4171 121.929 34.8466 122.06 34.2188C122.104 34.0142 122.369 33.2553 122.363 33.2007C122.347 33.0124 122.06 32.8185 121.975 32.6056C121.771 32.0817 121.833 31.3337 121.618 30.7223C120.905 28.7107 119.537 27.5616 118.21 26.0604C117.874 25.6811 117.278 24.6739 116.904 24.4064C116.708 24.2645 116.366 24.2917 116.145 24.0897C115.965 23.926 115.905 23.6311 115.659 23.4101C115.173 22.9788 114.455 22.6213 113.903 22.1162C113.646 21.8817 113.25 21.3029 113.051 21.1747C112.819 21.0273 112.617 21.0791 112.431 20.9863C111.642 20.596 111.011 19.8454 110.402 19.2476C108.632 17.5063 106.082 15.1043 105.719 12.5413C105.642 12.0091 105.541 10.4342 105.708 9.97564C105.771 9.80095 105.975 9.88558 106.055 9.76547C106.186 9.56897 106.349 8.95483 106.483 8.69006C106.74 8.17693 106.713 8.42531 106.879 7.7402C106.964 7.39083 108.927 5.39287 109.329 5.07898C110.287 4.33111 111.164 4.20283 112.226 3.85071C112.625 3.71697 113.097 3.40582 113.493 3.32393C114.007 3.21749 116.653 3.47677 117.27 3.59415C118.567 3.83981 119.755 4.50033 120.798 5.31372L120.793 5.31645Z" fill="#252121"/>
<path d="M76.2358 14.5256C77.7185 16.3789 78.4804 18.123 79.0948 20.4103C79.1876 20.7597 79.7639 23.0661 79.7584 23.227C79.7449 23.6529 79.5319 24.379 79.4963 24.7692C79.4034 25.7629 79.4963 26.8736 79.4063 27.8971C79.3161 28.9207 78.9284 29.2893 78.5841 30.1244C78.0981 31.2982 77.907 31.8195 77.2707 32.9359C77.0905 33.2552 76.7928 34.1914 76.4732 34.2923C76.3585 34.3279 76.1757 34.2787 76.1047 34.3224C76.0746 34.3414 75.968 34.7509 75.8944 34.8764C75.288 35.9109 74.062 37.221 73.0325 37.8434C72.579 38.119 72.448 37.9362 72.2376 38.0262C72.1066 38.0836 71.7844 38.5121 71.5987 38.6514C70.2905 39.6339 67.0054 40.9796 65.3807 40.7584C65.1321 40.7256 64.8508 40.5348 64.6433 40.5238C64.4194 40.5129 64.1926 40.6739 63.9469 40.6684C63.4117 40.652 63.0347 40.3135 62.6387 40.1825C61.8059 39.9014 60.2657 39.5357 59.5613 39.0661C59.4464 38.9897 59.4984 38.8069 59.4136 38.7469C59.2635 38.6405 58.9658 38.7713 58.7802 38.6623C58.66 38.5914 58.5399 38.2147 58.3787 38.0782C58.1028 37.8434 57.4938 37.677 57.2619 37.4914C56.8222 37.1446 55.9237 35.3704 55.555 34.8055C55.4513 34.65 55.2055 34.5244 55.1153 34.3469C55.0116 34.1449 55.028 33.8011 55.009 33.7793C54.9788 33.752 54.8041 33.7902 54.7222 33.7574C54.3233 33.5963 54.1595 32.1388 54.0339 31.7512C53.8074 31.0689 53.1136 29.8707 52.9935 29.2948C52.9171 28.9316 52.999 28.5986 52.947 28.2629C52.8487 27.6052 52.6604 27.1439 52.6768 26.3741C52.7369 23.8304 53.7692 18.3277 55.3748 16.3325C55.555 16.1086 55.8554 15.9667 55.9893 15.7811C56.123 15.5955 56.1393 15.3226 56.2678 15.1615C57.3628 13.7941 58.9877 12.1646 60.4924 11.2256C61.1095 10.8408 61.6803 10.6716 62.2484 10.2922C63.5701 9.40779 65.558 8.91922 67.1229 9.33684C70.8558 10.3385 73.7369 11.3921 76.2412 14.5228L76.2358 14.5256Z" fill="#252121"/>
<path d="M80.9938 6.99014C81.3708 7.55785 81.8622 10.2327 82.1626 11.158C82.2445 11.4119 82.4465 11.6029 82.5095 11.8868C82.5586 12.1161 82.5095 12.3808 82.5641 12.5528C82.6023 12.6729 82.7879 12.6729 82.848 12.8094C83.2196 13.6528 83.509 14.6954 83.8504 15.5661C85 18.5057 86.2097 21.5 87.4086 24.3822C87.7992 25.3239 88.195 26.2411 88.5337 27.2018C89.331 29.4592 90.1667 31.7081 91.0269 33.9437C91.0924 34.1184 91.0324 34.686 91.3847 34.6587C91.4284 34.6561 91.9362 34.0147 91.95 33.9736C92.0264 33.7144 91.8762 33.5179 91.8954 33.2966C91.9664 32.4751 92.365 32.1696 92.5535 31.6208C93.0395 30.1906 93.4111 28.6621 93.8971 27.2236C94.536 25.3377 95.2079 23.6753 95.653 21.7156C95.8551 20.8258 96.3302 19.9578 96.5241 19.1772C96.6526 18.6613 96.546 17.8862 96.7262 17.4058C96.8164 17.1656 97.0047 17.1001 97.0621 16.9336C97.4608 15.7736 97.6027 14.3379 98.0042 13.1232C98.2117 12.5009 98.8126 11.5238 98.9437 11.0134C99.0147 10.7459 98.9164 10.4566 99.0038 10.1781C99.1265 9.79602 99.7001 9.02903 99.8777 8.63055C100.355 7.56058 100.992 5.07405 101.745 4.30979C102.128 3.92221 102.857 4.10781 103.409 4.0887C103.884 4.07232 104.394 3.95769 104.886 4.08597C104.965 4.17333 104.239 5.43434 104.149 5.63359C103.302 7.50874 102.685 9.4794 101.931 11.3982C101.822 11.6794 101.445 12.1352 101.401 12.4027C101.363 12.6401 101.524 12.8257 101.459 13.0741C101.404 13.2788 101.035 13.7838 100.921 14.0676C100.265 15.6944 99.7739 17.4303 99.3015 19.0844C98.6543 21.3499 98.078 23.6236 97.1823 25.7526C96.9147 26.3857 96.9256 26.9207 96.7236 27.5377C96.3112 28.7903 95.6993 29.8822 95.3964 31.2334C94.9075 33.4251 94.0146 35.6196 93.1734 37.7104C92.9958 38.1498 92.619 38.592 92.4961 39.0067C92.3733 39.4216 92.4006 39.8257 92.2477 40.2843C92.0782 40.7918 91.8325 41.4279 91.21 41.3814C91.0024 41.3133 90.7156 39.8693 90.5955 39.569C90.0383 38.1797 89.3092 36.8069 88.774 35.382C88.4818 34.6096 88.2004 33.2449 87.8564 32.5325C87.7854 32.3823 87.5041 32.2187 87.3485 31.9621C87.0344 31.4406 86.7123 30.5099 86.4418 29.9095C85.7593 28.3865 85.0026 26.7897 84.5522 25.163C84.4729 24.8791 84.4729 24.265 84.339 24.0521C84.2599 23.9265 84.0415 23.9702 83.9622 23.8446C83.8312 23.6345 83.8148 22.9794 83.659 22.6463C83.5254 22.3624 83.244 22.2259 83.1431 21.9968C82.1108 19.6521 81.1794 17.1574 80.3411 14.7555C80.2592 14.518 79.9807 14.2478 79.9479 14.0649C79.9123 13.8575 80.0353 13.7183 79.9671 13.4344C79.7677 12.6046 79.003 11.4637 78.7219 10.6367C78.2931 9.3675 77.8862 8.06009 77.4875 6.76086C77.2416 5.96385 76.7446 4.80928 76.6162 4.03957C76.5015 3.34902 77.3344 3.78301 77.7304 3.72841C77.9899 3.69293 78.1675 3.46094 78.4541 3.46094C78.7846 3.46094 79.3007 3.61105 79.672 3.59468C79.7896 3.6629 79.653 3.8758 79.683 4.02048C79.8522 4.83385 80.5514 6.33506 80.9828 6.98741L80.9938 6.99014Z" fill="#252121"/>
<path d="M95.4635 3.37853C95.6164 3.43586 95.7584 3.44678 95.9113 3.37853C96.2691 3.30756 96.4412 3.3021 96.8071 3.28845C97.3424 3.35396 97.8885 3.35669 98.421 3.28845C98.7541 3.29664 98.7788 3.34031 98.6722 3.76339C98.6231 3.96264 98.4346 4.11822 98.3555 4.34477C98.2081 4.77328 98.3227 5.1636 98.2434 5.46931C98.2216 5.54845 98.0578 5.55391 97.9923 5.68221C97.8638 5.93604 97.9241 6.34273 97.8448 6.61296C97.7983 6.77127 97.5499 7.36627 97.4735 7.4973C97.2085 7.93947 96.5122 7.75113 96.0452 7.77297C94.8628 7.83302 93.7348 7.75386 92.5415 7.76751C90.3568 7.79208 88.183 7.66107 86.0011 7.58737C85.4823 7.57099 84.9553 7.61739 84.4363 7.58191C84.3325 6.09434 83.4778 4.81696 83.2539 3.34304C83.2677 3.25844 83.9859 3.00732 84.1169 3.01278C84.3845 3.02097 84.5702 3.10284 85.007 3.10557C86.408 3.11376 87.7461 3.09468 89.1362 3.11103C90.1111 3.12195 91.0669 3.16017 92.0964 3.20112C93.3144 3.24752 94.1883 3.20112 95.4609 3.37853H95.4635Z" fill="#F5872B"/>
<path d="M17.9468 29.5702C18.1161 29.9197 17.9304 30.2335 17.9523 30.591C18.0123 31.5436 18.2745 32.7064 17.9386 33.618C17.2586 35.4631 14.9347 36.4895 13.0695 36.5522C11.5457 36.6041 8.97869 35.4878 8.28233 34.0766C7.92732 33.3588 7.54227 30.4955 7.64059 29.6904C7.70612 29.1527 8.30418 29.4857 8.76843 29.4748C10.0765 29.4475 11.3873 29.3792 12.7172 29.3765C14.0471 29.3737 15.5983 29.27 16.9282 29.382C17.2695 29.4093 17.5945 29.5866 17.9468 29.5729V29.5702Z" fill="#F074AB"/>
<path d="M108.651 30.9023C109.039 30.8342 109.298 31.129 109.683 31.0908C109.883 31.0716 109.992 30.927 110.134 30.9078C111.939 30.6759 114.779 30.5912 116.59 30.8124C116.868 30.8451 117.089 31.0388 117.316 31.0552C117.928 31.0963 118.977 30.7386 119.255 31.5575C119.419 32.046 119.148 32.3052 119.077 32.7667C118.974 33.4544 118.985 34.3469 118.714 35.0021C118.583 35.3213 117.106 37.1693 116.805 37.3986C115.527 38.3647 113.878 38.2857 112.442 37.7397C112.226 37.6578 110.781 36.8199 110.628 36.6834C110.003 36.1184 109.001 33.3179 108.78 32.4337C108.651 31.9205 108.618 31.4374 108.646 30.9078L108.651 30.9023Z" fill="#F074AB"/>
<path d="M45.588 31.8007C45.6426 32.2429 45.5006 32.6633 45.4925 33.1C45.4842 33.4739 45.4816 34.088 45.4925 34.44C45.5034 34.6831 45.7736 35.6302 45.7573 35.6929C45.7219 35.8349 45.0801 35.9305 44.9135 35.9305C41.6283 35.9196 38.2802 36.0532 34.9596 36.0176C34.042 36.0067 33.1353 35.9032 32.2179 35.925C32.3079 35.4964 32.1222 35.0161 32.125 34.6285C32.1277 34.3391 32.2834 33.9461 32.3052 33.6349C32.3325 33.2337 32.1796 32.6222 32.2124 32.382C32.2751 31.9426 32.9961 32.2783 33.3375 32.2512C33.6514 32.2239 33.9083 31.9782 34.2331 31.9754C34.4926 31.9754 34.8148 32.1337 35.1289 32.1584C36.0655 32.232 37.0214 32.0164 37.9281 31.9208C38.3485 31.8771 38.6353 32.071 38.9848 32.0682C39.3889 32.0627 39.8942 31.8417 40.2519 31.8035C41.205 31.7024 44.5804 31.607 45.3641 31.8389C45.4241 31.8553 45.5607 31.7707 45.5825 31.7952L45.588 31.8007Z" fill="#F05F62"/>
<path d="M91.6969 10.1009C92.7945 10.2701 93.4391 9.98625 94.5232 9.92349C94.9602 9.89892 95.2933 9.98898 95.6784 10.0026C95.8859 10.0108 96.1946 9.78427 96.4102 10.0054C96.5714 10.2346 96.2027 12.1862 96.069 12.5438C95.9351 12.9013 95.6457 13.207 95.4764 13.5646C95.3835 13.7584 95.3752 14.0177 95.277 14.1733C95.0804 14.4844 94.1274 14.0395 93.8049 14.0368C91.959 14.0313 90.1047 14.3698 88.245 14.3179C87.9801 14.3097 87.1337 14.337 86.9751 14.1378C86.8932 14.0341 87.0681 13.8103 87.0297 13.7748C86.9506 13.7038 86.5273 13.8976 86.4919 13.8648C86.4509 13.8266 86.2787 12.9614 86.1531 12.8113C86.3635 12.3227 85.1892 10.5649 85.2357 10.3247C85.2493 10.2538 85.3832 10.2019 85.4596 10.1882C85.6671 10.1527 86.3991 10.0927 86.6256 10.0927C87.9665 10.0873 89.0971 10.3438 90.4379 10.0982C90.8529 10.049 91.2762 10.0572 91.694 10.0982L91.6969 10.1009Z" fill="#F05F62"/>
<path d="M94.9256 16.3789C94.6006 17.5417 94.1856 18.6771 93.7105 19.7798C93.4374 20.7215 93.3772 21.7833 93.1587 22.7276C93.0141 23.3526 92.5061 24.1032 92.2931 24.7339C92.2057 24.9903 92.0201 26.1121 91.9218 26.246C91.8152 26.3906 91.4711 26.194 91.605 26.7319C91.2309 26.9555 90.9168 25.9402 90.8211 25.6319C90.6791 25.1759 90.7475 24.8403 90.6929 24.5865C90.6737 24.4908 90.4963 24.4745 90.4362 24.379C89.9037 23.5655 89.8655 22.5857 89.5459 21.7068C89.2919 21.0108 89.0297 20.4131 88.7786 19.6952C88.4291 18.6935 87.6534 17.7928 87.6563 16.6464L94.923 16.3789H94.9256Z" fill="#F075AA"/>
<path d="M45.4981 18.4401C45.4133 18.8495 45.5826 19.379 45.5745 19.742C45.5691 19.9467 45.4133 20.1378 45.4052 20.3698C45.3587 21.7291 45.6427 23.364 45.5035 24.7642C45.4653 25.1381 45.2222 25.3947 45.2248 25.6568C45.2248 25.8887 45.4079 26.1071 45.4162 26.4619C45.4325 27.1252 45.3041 27.7556 45.3231 28.52C45.3613 30.0539 44.4166 29.4453 43.3024 29.5545C42.3712 29.6444 41.5272 29.8792 40.5225 29.822C40.1647 29.8001 39.7687 29.6418 39.3999 29.6444C39.1324 29.3688 40.809 27.2154 41.003 26.8085C41.358 26.0688 41.4045 25.736 41.8606 24.9771C42.2511 24.3248 42.4394 23.6944 42.7699 23.1047C42.9584 22.7691 43.4608 22.4114 43.5536 22.1766C43.6329 21.9694 43.5099 21.8355 43.5427 21.6444C43.6246 21.1613 44.1709 20.7519 44.3729 20.4053C44.6624 19.914 44.8672 19.0869 45.2467 18.5875C45.3231 18.4864 45.3395 18.4046 45.5007 18.4401H45.4981Z" fill="#F5882C"/>
<path d="M32.1565 29.8928C31.8971 29.7262 31.9161 28.8282 31.9571 28.5336C31.9763 28.3833 32.1347 28.2824 32.1402 28.0831C32.1456 27.8675 31.9818 27.6192 31.9543 27.3626C31.9051 26.9066 32.0773 26.5164 32.0473 26.1069C32.0226 25.7468 31.8068 25.3646 31.7715 24.9414C31.643 23.4348 31.856 21.8626 31.8724 20.3669C31.8724 20.1868 31.6022 18.9667 31.9106 18.9776C32.0936 18.9858 32.6589 20.3096 32.7791 20.5279C33.1642 21.2185 33.2188 21.2758 33.522 22.0264C33.9097 22.9899 34.6252 23.8962 35.021 24.8324C35.1659 25.1735 35.1386 25.4902 35.2532 25.7658C35.5044 26.3663 37.0966 29.2104 37.0721 29.5106C37.0446 29.8655 36.5586 29.6934 36.31 29.7426C35.338 29.9336 33.8933 30.0701 32.8911 30.0101C32.719 29.9992 32.2793 29.9692 32.1565 29.89V29.8928Z" fill="#F5882C"/>
<path d="M115.555 7.86068C116.066 7.91252 116.989 8.15545 117.352 8.52939C117.44 8.61947 118.426 10.3936 118.426 10.5055V12.8829C118.21 12.9375 117.958 12.7792 117.77 12.8092C117.598 12.8365 117.492 13.0303 117.218 13.0658C116.17 13.2022 113.352 13.0822 112.303 12.8611C111.626 12.7191 111.399 12.6018 111.336 11.8511C111.273 11.1005 111.945 9.35643 112.51 8.89787C112.896 8.58671 114.01 7.92071 114.477 7.86068C114.826 7.76513 115.2 7.76786 115.552 7.86068H115.555Z" fill="#F5872B"/>
<path d="M37.7385 37.6277C37.7822 37.6358 37.9515 37.7232 37.9652 37.7778C38.0526 38.1407 37.8342 39.197 37.8696 39.7375C37.8997 40.2042 38.2627 41.4217 38.0989 41.7519C38.0225 41.9048 37.7138 41.9867 37.5528 42.0111C36.5671 42.1614 35.4201 42.0576 34.4232 42.014C33.746 41.9867 33.0523 42.0876 32.4051 41.7901C31.9163 41.5634 32.2114 40.974 32.2031 40.6301C32.1812 39.7703 32.0229 38.8286 32.1513 37.9605C32.3068 36.9206 32.864 37.4148 33.7024 37.3602C34.4861 37.3082 34.4396 37.2809 35.2235 37.3602C35.5129 37.3901 35.7641 37.2646 35.9498 37.2729C36.1628 37.2838 36.3349 37.6249 36.3921 37.6249C36.7827 37.6249 37.3862 37.5677 37.7385 37.6249V37.6277Z" fill="#F075AA"/>
<path d="M10.691 11.2669C10.478 11.2614 10.1093 11.3133 9.94 11.256C9.56587 11.1304 9.83076 10.0878 9.86626 9.78751C9.87718 9.68925 9.78981 9.55279 9.798 9.43541C9.88812 8.40914 11.756 7.07988 12.7091 7.04712C12.9439 7.03893 14.282 7.23546 14.5333 7.29551C15.6092 7.56026 16.5377 8.62477 16.9883 9.59371C17.0784 9.78478 17.357 10.7073 17.2395 10.822C15.8359 11.1522 14.3749 10.9858 12.9794 11.0922C12.6517 11.1168 12.3595 11.2451 11.9472 11.2723C11.5321 11.2068 11.1061 11.2014 10.691 11.2723V11.2669Z" fill="#F5882C"/>
<path d="M45.676 37.6279C45.624 38.4659 45.4794 39.5357 45.5858 40.3656C45.6186 40.6357 45.8534 40.9142 45.8398 41.067C45.8234 41.2472 45.624 41.3509 45.5476 41.49C45.4875 41.5992 45.5176 41.8093 45.493 41.834C45.4685 41.8585 44.8403 41.9349 44.742 41.9349C44.1138 41.9323 43.2099 41.7357 42.59 41.7493C41.921 41.7656 40.9051 42.0524 40.1624 42.0305C40.015 42.0251 39.8538 42.0251 39.75 41.8967L39.7583 37.8981L45.6786 37.6306L45.676 37.6279Z" fill="#F075AA"/>
<path d="M98.4224 3.2887C97.9746 3.43884 97.2647 3.43884 96.8086 3.2887C97.3383 3.26961 97.8953 3.27234 98.4224 3.2887Z" fill="#F8BB5F"/>
<path d="M91.6976 10.1012H90.4414C91.0257 9.99471 91.1185 10.0138 91.6976 10.1012Z" fill="#D0CA74"/>
<path d="M11.9437 11.2669C11.5504 11.2942 11.0862 11.2779 10.6875 11.2669C11.007 11.1141 11.6433 11.1168 11.9437 11.2669Z" fill="#F8B454"/>
<path d="M115.556 7.86068C115.283 7.83339 114.748 7.82793 114.48 7.86068C114.737 7.70784 115.319 7.71057 115.556 7.86068Z" fill="#FBE453"/>
<path d="M95.9113 3.37891C95.8895 3.38437 95.8349 3.48262 95.6874 3.47716C95.5592 3.47443 95.4854 3.38164 95.4609 3.37891H95.9087H95.9113Z" fill="#F8BB5F"/>
<path d="M65.1403 11.9848L65.9487 12.0748C67.1776 12.0421 67.9476 12.0885 69.1382 12.517C69.4604 12.6344 69.7883 12.9673 70.1622 13.1066C70.3562 13.1775 70.5801 13.1257 70.7712 13.2157C70.9405 13.2949 71.2655 13.7807 71.5167 13.9063C71.7681 14.0319 72.1886 14.0073 72.3826 14.1629C72.9861 14.6487 73.6578 15.705 74.2039 16.2427C74.3897 16.4256 74.6519 16.5047 74.8292 16.6931C74.974 16.8459 76.3121 19.4198 76.3995 19.6955C76.6645 20.528 76.6699 21.9391 76.8257 22.8563C76.8694 23.1127 77.0714 23.3339 77.0769 23.5905C77.1013 24.9661 76.8556 26.7158 76.6234 28.075C76.3914 29.4342 75.3864 31.1538 74.6355 32.3656C74.5153 32.5621 74.2285 32.7288 74.1602 32.8762C74.092 33.0236 74.1302 33.2037 74.0291 33.3728C73.7808 33.7796 72.5409 34.2026 72.5872 35.0242C72.224 34.6256 71.9975 35.1661 71.6917 35.4282C70.2907 36.6265 68.9388 37.6336 67.0492 37.871C65.6154 38.0538 61.4729 37.3633 60.386 36.4135C59.848 35.944 59.2499 35.3162 58.6818 34.8003C57.7561 33.9598 57.4911 32.767 56.6611 31.8006C56.5818 31.7078 55.9783 29.8627 55.8774 29.5325C54.7686 25.8969 55.6615 20.0967 58.0866 17.1189C58.7228 16.3355 59.3672 15.7378 60.0308 14.8916C60.5006 14.2911 61.9425 13.3522 62.6415 13.0192C63.1222 12.7899 63.6465 12.7599 64.0672 12.5607C64.5532 12.3314 64.4385 12.0366 65.1429 11.9766L65.1403 11.9848Z" fill="#F7EA32"/>
<path d="M65.949 12.0749C65.7031 12.0804 65.3127 12.1404 65.1406 11.9849C65.3728 11.9657 65.7878 11.9275 65.949 12.0749Z" fill="#D0CA74"/>
<path d="M65.5929 23.1018C65.8933 22.7854 66.1965 22.7909 66.6198 22.8372C67.6901 22.9573 68.7224 22.6952 69.8504 22.6489C71.0436 22.6024 72.4145 22.6981 73.6216 22.7253C74.2032 22.7389 74.8013 22.3486 75.0608 23.1866C75.241 23.7707 75.1508 25.1763 75.0907 25.8231C75.0689 26.0415 74.793 27.1906 74.7002 27.3162C74.5719 27.4883 73.627 27.3817 73.3485 27.4009C72.2369 27.4719 70.9261 27.6412 69.853 27.6792C69.4707 27.6929 69.042 27.5047 68.7169 27.5429C68.3919 27.5811 68.1953 27.8403 67.7912 27.8593C67.4935 27.8731 67.2561 27.7639 66.9857 27.7584C64.4132 27.7065 61.9253 27.7038 59.3528 27.7584C58.897 27.7665 58.2388 28.0777 57.892 27.611C57.8291 27.0843 57.7472 26.5602 57.6762 26.0334C57.5615 25.1872 57.679 25.4685 57.7799 24.7506C57.8428 24.2892 57.7664 23.6369 57.9164 23.1811C57.9302 23.1429 58.3808 22.6216 58.4136 22.6052C58.8068 22.4113 59.0416 22.7035 59.1781 22.7061C59.2519 22.7061 59.5223 22.4714 59.8063 22.4688C60.123 22.4688 61.0297 22.5179 61.3272 22.5642C61.5896 22.6052 61.7698 22.8291 62.0483 22.8317C62.3023 22.8317 62.5507 22.6489 62.8567 22.6406C63.2881 22.6297 63.8451 22.8153 64.2876 22.8317C64.7601 22.8481 65.6585 22.5343 65.5929 23.0964V23.1018Z" fill="#F05F62"/>
<path d="M73.3902 30.3708C73.6526 30.6438 72.7404 31.8803 72.5547 32.1696C72.0139 33.0076 71.7245 32.9556 71.1537 33.5507C70.9244 33.7881 70.8342 34.1947 70.5721 34.405C70.1352 34.7544 68.8816 35.1337 68.341 35.3165C68.2235 35.3547 68.2209 35.5159 68.0789 35.5978C67.459 35.9581 65.7303 36.0263 65.0285 35.9062C64.6627 35.8435 64.3158 35.5622 63.9744 35.4366C63.0076 35.0818 63.2206 35.2892 62.3549 34.6343C61.9698 34.3421 61.4758 34.0366 61.0743 33.7636C60.4981 33.376 59.556 32.6389 59.2036 32.0467C58.9525 31.6208 58.947 31.0995 58.6875 30.682C59.0479 30.2944 59.5531 30.7202 59.8972 30.7338C60.8722 30.772 61.8879 30.6792 62.8547 30.7202C63.0677 30.7283 63.237 30.9004 63.3792 30.8866C64.8892 30.7447 66.4868 30.4254 68.0542 30.3653C68.5267 30.3463 68.7753 30.5263 69.04 30.5372C69.4032 30.551 70.0559 30.2834 70.3016 30.2889C70.4657 30.2917 70.6157 30.4553 70.8396 30.4662C71.1264 30.48 71.4242 30.2808 71.6509 30.2917C71.8282 30.2998 71.9676 30.4662 72.186 30.4662C72.5056 30.4662 72.9178 30.128 73.3931 30.3736L73.3902 30.3708Z" fill="#F074AB"/>
<path d="M73.6666 19.4254C73.0248 19.4445 72.3776 19.4036 71.7359 19.4227C70.8484 19.4473 69.8462 19.4418 68.964 19.521C68.62 19.551 68.0601 19.8785 67.6095 19.8622C67.3638 19.854 67.0934 19.5974 66.7166 19.5974C64.6057 19.5974 62.3801 19.9113 60.2582 19.6929C60.0534 19.6711 59.6901 19.6247 59.6683 19.3791C59.6573 19.2398 59.9577 18.4019 60.0479 18.2299C60.3373 17.695 60.8072 17.3756 61.1702 16.9771C61.4105 16.7151 61.5254 16.3302 61.9212 16.0682C62.2243 15.8662 62.9535 15.7871 62.9917 15.7461C63.1638 15.5578 62.6586 15.6042 62.8552 15.3858C62.9862 15.2412 63.3905 15.233 63.5926 15.1347C64.0104 14.9355 64.2398 14.7007 64.7476 14.5861C65.2555 14.4715 64.9962 14.6352 65.4195 14.365C66.1676 13.8846 68.6746 14.6707 69.4856 15.0365C70.2121 15.3667 70.761 15.9263 71.3318 16.4176C72.4213 17.3538 72.3805 16.988 73.1395 18.3746C73.3062 18.6776 73.6749 18.9505 73.6639 19.4172L73.6666 19.4254Z" fill="#F5872B"/>
</svg>
