<svg width="402" height="153" viewBox="0 0 402 153" fill="none" xmlns="http://www.w3.org/2000/svg">
<g clip-path="url(#clip0_1258_4223)">
<path d="M6223.86 -5730.34C6257.84 -5730.34 6289.55 -5744.42 6317.44 -5756.83C6351.63 -5772.01 6383.93 -5786.34 6434.01 -5786.34C6465.22 -5786.34 6496.23 -5780.62 6529.95 -5768.5V-6518.5H6127.95V-5754.2C6174.06 -5734.57 6205.37 -5730.34 6223.86 -5730.34Z" fill="#FDC700"/>
<path d="M6529.95 -4882.5C6483.92 -4902.14 6452.51 -4906.36 6434.01 -4906.36C6400.03 -4906.36 6368.32 -4892.28 6340.43 -4879.87C6306.24 -4864.69 6273.94 -4850.36 6223.86 -4850.36C6192.64 -4850.36 6161.63 -4856.09 6127.95 -4868.21V-4144H6529.95V-4882.5Z" fill="#FDC700"/>
<path d="M402 29C355.968 9.36474 324.558 5.1416 306.065 5.1416C272.083 5.14168 240.371 19.2157 212.483 31.6318C178.291 46.8087 145.989 61.1416 95.9092 61.1416C64.6945 61.1416 33.6851 55.4127 0 43.293V77H402V29Z" fill="#FDC700"/>
</g>
<g clip-path="url(#clip1_1258_4223)">
<path d="M-5823.81 5882.9C-5857.81 5882.9 -5889.53 5896.98 -5917.43 5909.39C-5951.63 5924.57 -5983.94 5938.9 -6034.04 5938.9C-6065.26 5938.9 -6096.27 5933.17 -6130 5921.06V6671H-5727.87V5906.75C-5774 5887.13 -5805.32 5882.9 -5823.81 5882.9Z" fill="#FDC700"/>
<path d="M-6130 5035.12C-6083.95 5054.76 -6052.53 5058.98 -6034.04 5058.98C-6000.04 5058.98 -5968.32 5044.91 -5940.42 5032.49C-5906.22 5017.32 -5873.91 5002.98 -5823.81 5002.98C-5792.59 5002.98 -5761.57 5008.71 -5727.87 5020.83V4296.68H-6130V5035.12Z" fill="#FDC700"/>
<path d="M-0.126323 123.996C45.9199 143.63 77.3399 147.853 95.8384 147.853C129.831 147.853 161.553 133.78 189.45 121.365C223.653 106.189 255.965 91.8572 306.061 91.8572C337.285 91.8572 368.304 97.5857 402 109.704V76H-0.126323V123.996Z" fill="#FDC700"/>
</g>
<defs>
<clipPath id="clip0_1258_4223">
<rect width="402" height="77" fill="white" transform="matrix(1 0 0 -1 0 77)"/>
</clipPath>
<clipPath id="clip1_1258_4223">
<rect width="402" height="77" fill="white" transform="matrix(-1 0 0 1 402 76)"/>
</clipPath>
</defs>
</svg>
